<svg width="44" height="44" viewBox="0 0 44 44" fill="none" xmlns="http://www.w3.org/2000/svg">
<path d="M28.237 38.5V25.729H32.5142L33.154 20.7643H28.237V17.5963C28.237 16.159 28.6367 15.1782 30.6973 15.1782H33.3263V10.7378C32.0536 10.6028 30.7745 10.5373 29.4947 10.5417C25.7052 10.5417 23.111 12.8553 23.111 17.105V20.7643H18.8247V25.729H23.111V38.5H7.33333C6.8471 38.5 6.38079 38.3068 6.03697 37.963C5.69315 37.6192 5.5 37.1529 5.5 36.6667V7.33333C5.5 6.8471 5.69315 6.38079 6.03697 6.03697C6.38079 5.69315 6.8471 5.5 7.33333 5.5H36.6667C37.1529 5.5 37.6192 5.69315 37.963 6.03697C38.3068 6.38079 38.5 6.8471 38.5 7.33333V36.6667C38.5 37.1529 38.3068 37.6192 37.963 37.963C37.6192 38.3068 37.1529 38.5 36.6667 38.5H28.237Z" fill="white"/>
</svg>
