<svg width="34" height="34" viewBox="0 0 34 34" fill="none" xmlns="http://www.w3.org/2000/svg">
<path d="M17 12.9519C16.1994 12.9522 15.4169 13.1898 14.7514 13.6348C14.0859 14.0798 13.5673 14.7122 13.2611 15.4519C12.9549 16.1916 12.875 17.0055 13.0314 17.7907C13.1877 18.5758 13.5734 19.297 14.1396 19.863C14.7058 20.429 15.4271 20.8144 16.2123 20.9705C16.9975 21.1265 17.8114 21.0463 18.551 20.7398C19.2906 20.4334 19.9228 19.9145 20.3675 19.2489C20.8123 18.5832 21.0496 17.8006 21.0496 17C21.0488 15.9264 20.6219 14.8969 19.8625 14.1379C19.1032 13.3789 18.0736 12.9523 17 12.9519ZM26.4646 9.84027C26.2585 9.31801 25.9473 8.84366 25.5503 8.44665C25.1533 8.04965 24.679 7.73845 24.1567 7.53237C22.5629 6.90321 18.7683 7.04437 17 7.04437C15.2317 7.04437 11.4408 6.8979 9.84254 7.53237C9.32028 7.73845 8.84593 8.04965 8.44893 8.44665C8.05192 8.84366 7.74073 9.31801 7.53464 9.84027C6.90625 11.434 7.04665 15.2325 7.04665 16.9992C7.04665 18.766 6.90625 22.5599 7.53768 24.159C7.74376 24.6812 8.05496 25.1556 8.45196 25.5526C8.84897 25.9496 9.32332 26.2608 9.84558 26.4669C11.4393 27.096 15.234 26.9549 17.003 26.9549C18.7721 26.9549 22.5614 27.1013 24.1597 26.4669C24.682 26.2608 25.1563 25.9496 25.5533 25.5526C25.9504 25.1556 26.2616 24.6812 26.4676 24.159C27.1013 22.5652 26.9556 18.7668 26.9556 17C26.9556 15.2332 27.1013 11.4401 26.4676 9.84103L26.4646 9.84027ZM17 23.2232C15.7692 23.2232 14.566 22.8582 13.5426 22.1744C12.5192 21.4906 11.7215 20.5187 11.2505 19.3815C10.7795 18.2444 10.6562 16.9931 10.8964 15.7859C11.1365 14.5787 11.7292 13.4699 12.5995 12.5995C13.4699 11.7292 14.5787 11.1365 15.7859 10.8964C16.9931 10.6562 18.2444 10.7795 19.3815 11.2505C20.5187 11.7215 21.4906 12.5192 22.1744 13.5426C22.8582 14.566 23.2232 15.7692 23.2232 17C23.2242 17.8175 23.0639 18.6272 22.7515 19.3827C22.4391 20.1382 21.9808 20.8246 21.4027 21.4027C20.8246 21.9808 20.1382 22.4391 19.3827 22.7515C18.6272 23.0639 17.8175 23.2242 17 23.2232ZM23.4797 11.9683C23.1924 11.9685 22.9115 11.8834 22.6725 11.7239C22.4335 11.5643 22.2472 11.3375 22.1372 11.0721C22.0271 10.8067 21.9982 10.5146 22.0542 10.2328C22.1102 9.95097 22.2485 9.69207 22.4516 9.48885C22.6547 9.28562 22.9135 9.1472 23.1953 9.09109C23.4771 9.03498 23.7692 9.0637 24.0347 9.17362C24.3002 9.28355 24.5271 9.46973 24.6867 9.70862C24.8463 9.94751 24.9316 10.2284 24.9316 10.5157C24.9324 10.7065 24.8955 10.8956 24.823 11.0721C24.7506 11.2486 24.644 11.4091 24.5094 11.5444C24.3748 11.6796 24.2148 11.7869 24.0387 11.8602C23.8625 11.9335 23.6736 11.9712 23.4828 11.9713L23.4797 11.9683ZM30.3571 0H3.64286C2.67671 0 1.75014 0.3838 1.06697 1.06697C0.3838 1.75014 0 2.67671 0 3.64286L0 30.3571C0 31.3233 0.3838 32.2499 1.06697 32.933C1.75014 33.6162 2.67671 34 3.64286 34H30.3571C31.3233 34 32.2499 33.6162 32.933 32.933C33.6162 32.2499 34 31.3233 34 30.3571V3.64286C34 2.67671 33.6162 1.75014 32.933 1.06697C32.2499 0.3838 31.3233 0 30.3571 0ZM29.0579 22.0089C28.96 23.9541 28.516 25.6776 27.096 27.0938C25.6761 28.5099 23.9541 28.963 22.0112 29.0556C20.0069 29.1687 13.9977 29.1687 11.9933 29.0556C10.0482 28.9577 8.33076 28.5129 6.90853 27.0938C5.48629 25.6746 5.03929 23.9503 4.9467 22.0089C4.83362 20.0038 4.83362 13.9939 4.9467 11.9911C5.0446 10.0459 5.48326 8.32241 6.90853 6.90625C8.33379 5.49009 10.0558 5.04232 11.9933 4.94973C13.9977 4.83665 20.0069 4.83665 22.0112 4.94973C23.9563 5.04763 25.6791 5.49237 27.096 6.91156C28.5129 8.33076 28.9653 10.055 29.0579 12.0002C29.1709 13.9977 29.1709 20.0023 29.0579 22.0089Z" fill="white"/>
</svg>
