<svg width="39" height="40" viewBox="0 0 39 40" fill="none" xmlns="http://www.w3.org/2000/svg">
<path d="M19.5 15.4161C18.5817 15.4164 17.6841 15.6856 16.9207 16.1895C16.1573 16.6933 15.5624 17.4094 15.2113 18.247C14.8601 19.0846 14.7684 20.0063 14.9477 20.8953C15.1271 21.7844 15.5695 22.601 16.219 23.2419C16.8684 23.8828 17.6958 24.3192 18.5965 24.496C19.4972 24.6727 20.4307 24.5818 21.2791 24.2348C22.1275 23.8878 22.8526 23.3003 23.3627 22.5465C23.8729 21.7927 24.1452 20.9065 24.1452 20C24.1443 18.7843 23.6545 17.6186 22.7835 16.7591C21.9125 15.8996 20.7315 15.4165 19.5 15.4161ZM30.3565 11.8927C30.1201 11.3013 29.7631 10.7641 29.3077 10.3146C28.8523 9.86504 28.3082 9.51265 27.7092 9.2793C25.881 8.56687 21.5283 8.72672 19.5 8.72672C17.4717 8.72672 13.1233 8.56086 11.29 9.2793C10.6909 9.51265 10.1468 9.86504 9.69142 10.3146C9.23603 10.7641 8.87907 11.3013 8.64268 11.8927C7.92188 13.6973 8.08292 17.9985 8.08292 19.9991C8.08292 21.9998 7.92188 26.2958 8.64616 28.1065C8.88255 28.6979 9.23951 29.235 9.6949 29.6846C10.1503 30.1341 10.6944 30.4865 11.2935 30.7198C13.1216 31.4323 17.4743 31.2724 19.5035 31.2724C21.5327 31.2724 25.8793 31.4383 27.7126 30.7198C28.3117 30.4865 28.8558 30.1341 29.3112 29.6846C29.7666 29.235 30.1235 28.6979 30.3599 28.1065C31.0868 26.3018 30.9197 22.0006 30.9197 20C30.9197 17.9994 31.0868 13.7042 30.3599 11.8935L30.3565 11.8927ZM19.5 27.0469C18.0882 27.0469 16.708 26.6336 15.5341 25.8593C14.3602 25.0849 13.4453 23.9844 12.905 22.6967C12.3647 21.4091 12.2233 19.9922 12.4988 18.6252C12.7742 17.2583 13.4541 16.0026 14.4524 15.0171C15.4507 14.0316 16.7227 13.3604 18.1074 13.0885C19.4921 12.8166 20.9274 12.9562 22.2317 13.4895C23.5361 14.0229 24.651 14.9261 25.4354 16.085C26.2197 17.2438 26.6384 18.6063 26.6384 20C26.6395 20.9257 26.4557 21.8426 26.0973 22.6981C25.739 23.5535 25.2133 24.3308 24.5502 24.9854C23.8871 25.64 23.0997 26.159 22.2331 26.5128C21.3665 26.8665 20.4377 27.048 19.5 27.0469ZM26.9326 14.3023C26.6031 14.3025 26.2808 14.2062 26.0067 14.0256C25.7326 13.8449 25.5189 13.5881 25.3926 13.2875C25.2664 12.987 25.2333 12.6563 25.2975 12.3371C25.3617 12.018 25.5203 11.7248 25.7533 11.4947C25.9863 11.2646 26.2831 11.1079 26.6064 11.0443C26.9296 10.9808 27.2647 11.0133 27.5692 11.1378C27.8737 11.2622 28.134 11.4731 28.3171 11.7436C28.5002 12.0141 28.598 12.3321 28.598 12.6575C28.5989 12.8736 28.5566 13.0877 28.4735 13.2876C28.3904 13.4874 28.2681 13.6692 28.1137 13.8223C27.9593 13.9754 27.7758 14.097 27.5738 14.1799C27.3717 14.2629 27.155 14.3057 26.9361 14.3058L26.9326 14.3023ZM34.8214 0.75H4.17857C3.07035 0.75 2.00751 1.1846 1.22388 1.95818C0.440241 2.73177 0 3.78098 0 4.875L0 35.125C0 36.219 0.440241 37.2682 1.22388 38.0418C2.00751 38.8154 3.07035 39.25 4.17857 39.25H34.8214C35.9297 39.25 36.9925 38.8154 37.7761 38.0418C38.5598 37.2682 39 36.219 39 35.125V4.875C39 3.78098 38.5598 2.73177 37.7761 1.95818C36.9925 1.1846 35.9297 0.75 34.8214 0.75ZM33.3311 25.6719C33.2188 27.8745 32.7095 29.8261 31.0807 31.4297C29.452 33.0333 27.4767 33.5463 25.2481 33.6512C22.9491 33.7792 16.0562 33.7792 13.7571 33.6512C11.5259 33.5403 9.55587 33.0367 7.92449 31.4297C6.2931 29.8227 5.78036 27.8702 5.67415 25.6719C5.54444 23.4014 5.54444 16.596 5.67415 14.3281C5.78645 12.1255 6.28962 10.1739 7.92449 8.57031C9.55935 6.96672 11.5346 6.45969 13.7571 6.35484C16.0562 6.2268 22.9491 6.2268 25.2481 6.35484C27.4793 6.4657 29.4554 6.9693 31.0807 8.57633C32.706 10.1834 33.2249 12.1359 33.3311 14.3384C33.4608 16.6003 33.4608 23.3997 33.3311 25.6719Z" fill="white"/>
</svg>
