<svg width="36" height="36" viewBox="0 0 36 36" fill="none" xmlns="http://www.w3.org/2000/svg">
<path d="M33.8125 0.8125H2.1875C1.42695 0.8125 0.8125 1.42695 0.8125 2.1875V33.8125C0.8125 34.573 1.42695 35.1875 2.1875 35.1875H33.8125C34.573 35.1875 35.1875 34.573 35.1875 33.8125V2.1875C35.1875 1.42695 34.573 0.8125 33.8125 0.8125ZM27.2512 13.2605C27.2641 13.4625 27.2641 13.673 27.2641 13.8793C27.2641 20.1871 22.4602 27.4531 13.6816 27.4531C10.9746 27.4531 8.46523 26.6668 6.35117 25.3133C6.73789 25.3563 7.10742 25.3734 7.50274 25.3734C9.73711 25.3734 11.791 24.6172 13.4281 23.3367C11.3313 23.2938 9.56953 21.9188 8.96797 20.0281C9.70273 20.1355 10.3645 20.1355 11.1207 19.9422C10.041 19.7228 9.07056 19.1364 8.37421 18.2827C7.67786 17.4289 7.29858 16.3603 7.30078 15.2586V15.1984C7.93242 15.5551 8.67578 15.7742 9.45352 15.8043C8.79971 15.3686 8.26353 14.7782 7.89251 14.0857C7.52149 13.3931 7.32709 12.6197 7.32656 11.834C7.32656 10.9445 7.55859 10.1324 7.97539 9.42773C9.1738 10.903 10.6692 12.1096 12.3645 12.9691C14.0598 13.8285 15.9169 14.3217 17.8152 14.4164C17.1406 11.1723 19.5641 8.54688 22.4773 8.54688C23.8523 8.54688 25.0898 9.12266 25.9621 10.0508C27.0406 9.84883 28.0719 9.44492 28.9914 8.90351C28.6348 10.0078 27.8871 10.9402 26.8945 11.5289C27.857 11.4258 28.7852 11.1594 29.6445 10.7855C28.9957 11.7395 28.1836 12.5859 27.2512 13.2605Z" fill="white"/>
</svg>
